<svg id="Layer_3" enable-background="new 0 0 64 64" height="512" viewBox="0 0 64 64" width="512" xmlns="http://www.w3.org/2000/svg"><path d="m32 34h20c5.523 0 10-4.477 10-10s-4.477-10-10-10c-1.831 0-3.542.5-5.018 1.36.003-.121.018-.239.018-.36 0-7.18-5.82-13-13-13-6.238 0-11.445 4.396-12.705 10.258-1.241-.792-2.712-1.258-4.295-1.258-4.418 0-8 3.582-8 8 0 .341.028.674.07 1.004-.024-.001-.047-.004-.07-.004-3.866 0-7 3.134-7 7 0 1.959.805 3.73 2.101 5" fill="#a8b0bc"/><path d="m20.5 27c12.274 0 22.734-4.901 26.747-11.773-.087.047-.18.083-.265.133.003-.121.018-.239.018-.36 0-7.18-5.82-13-13-13-6.238 0-11.445 4.396-12.705 10.258-1.241-.792-2.712-1.258-4.295-1.258-4.418 0-8 3.582-8 8 0 .341.028.674.07 1.004-.024-.001-.047-.004-.07-.004-2.485 0-4.661 1.298-5.904 3.249 4.815 2.35 10.849 3.751 17.404 3.751z" fill="#c1c8d1"/><g fill="#8892a0"><path d="m50 41c0 1.657-1.343 3-3 3h-24c-1.657 0-3-1.343-3-3 0-1.657-1.343-3-3-3h-12c-1.657 0-3-1.343-3-3 0-1.657 1.343-3 3-3h24c1.657 0 3 1.343 3 3 0 1.657 1.343 3 3 3h12c1.657 0 3 1.343 3 3z"/><path d="m30 59c0 1.657-1.343 3-3 3h-11c-1.657 0-3-1.343-3-3 0-1.657-1.343-3-3-3h-5c-1.657 0-3-1.343-3-3 0-1.657 1.343-3 3-3h11c1.657 0 3 1.343 3 3 0 1.657 1.343 3 3 3h5c1.657 0 3 1.343 3 3z"/><path d="m62 59c0 1.657-1.343 3-3 3h-11c-1.657 0-3-1.343-3-3 0-1.657-1.343-3-3-3h-5c-1.657 0-3-1.343-3-3 0-1.657 1.343-3 3-3h11c1.657 0 3 1.343 3 3 0 1.657 1.343 3 3 3h5c1.657 0 3 1.343 3 3z"/></g><path d="m52 35h-20v-2h20c4.962 0 9-4.038 9-9s-4.038-9-9-9c-1.578 0-3.14.423-4.515 1.224-.313.182-.702.181-1.014-.004-.312-.186-.499-.525-.489-.888l.018-.332c0-6.617-5.383-12-12-12-5.616 0-10.548 3.982-11.727 9.468-.069.32-.29.586-.592.713-.303.126-.648.096-.923-.08-1.13-.72-2.429-1.101-3.758-1.101-3.86 0-7 3.14-7 7 0 .298.026.59.062.878.036.285-.052.571-.242.787-.206.233-.545.361-.858.334-3.271.001-5.962 2.692-5.962 6.001 0 1.626.64 3.148 1.801 4.286l-1.399 1.429c-1.549-1.517-2.402-3.547-2.402-5.715 0-4.073 3.059-7.444 7-7.938 0-.02 0-.041 0-.062 0-4.962 4.038-9 9-9 1.264 0 2.506.267 3.654.78 1.818-5.738 7.234-9.78 13.346-9.78 7.309 0 13.328 5.63 13.947 12.78 1.289-.513 2.665-.78 4.053-.78 6.065 0 11 4.935 11 11s-4.935 11-11 11z"/><path d="m47 45h-24c-2.206 0-4-1.794-4-4 0-1.103-.897-2-2-2h-12c-2.206 0-4-1.794-4-4s1.794-4 4-4h24c2.206 0 4 1.794 4 4 0 1.103.897 2 2 2h12c2.206 0 4 1.794 4 4s-1.794 4-4 4zm-42-12c-1.103 0-2 .897-2 2s.897 2 2 2h12c2.206 0 4 1.794 4 4 0 1.103.897 2 2 2h24c1.103 0 2-.897 2-2s-.897-2-2-2h-12c-2.206 0-4-1.794-4-4 0-1.103-.897-2-2-2z"/><path d="m27 63h-11c-2.206 0-4-1.794-4-4 0-1.103-.897-2-2-2h-5c-2.206 0-4-1.794-4-4s1.794-4 4-4h11c2.206 0 4 1.794 4 4 0 1.103.897 2 2 2h5c2.206 0 4 1.794 4 4s-1.794 4-4 4zm-22-12c-1.103 0-2 .897-2 2s.897 2 2 2h5c2.206 0 4 1.794 4 4 0 1.103.897 2 2 2h11c1.103 0 2-.897 2-2s-.897-2-2-2h-5c-2.206 0-4-1.794-4-4 0-1.103-.897-2-2-2z"/><path d="m59 63h-11c-2.206 0-4-1.794-4-4 0-1.103-.897-2-2-2h-5c-2.206 0-4-1.794-4-4s1.794-4 4-4h11c2.206 0 4 1.794 4 4 0 1.103.897 2 2 2h5c2.206 0 4 1.794 4 4s-1.794 4-4 4zm-22-12c-1.103 0-2 .897-2 2s.897 2 2 2h5c2.206 0 4 1.794 4 4 0 1.103.897 2 2 2h11c1.103 0 2-.897 2-2s-.897-2-2-2h-5c-2.206 0-4-1.794-4-4 0-1.103-.897-2-2-2z"/></svg>