<svg id="Layer_3" enable-background="new 0 0 64 64" height="512" viewBox="0 0 64 64" width="512" xmlns="http://www.w3.org/2000/svg"><path d="m63 52c-2.761 0-5 2.239-5 5s2.239 5 5 5c-8.284 0-15-6.716-15-15s6.716-15 15-15c-2.761 0-5 2.239-5 5s2.239 5 5 5c-2.761 0-5 2.239-5 5s2.239 5 5 5z" fill="#f4b2b0"/><g fill="#b3404a"><path d="m5 15h13c2.757 0 5-2.243 5-5s-2.243-5-5-5c-.438 0-.876.061-1.303.18-.766-2.456-3.024-4.18-5.697-4.18-3.309 0-6 2.691-6 6-2.206 0-4 1.794-4 4s1.794 4 4 4zm0-6c.271 0 .534.054.782.159.351.148.755.086 1.043-.162.289-.247.411-.638.317-1.006-.097-.379-.142-.694-.142-.991 0-2.206 1.794-4 4-4 2.081 0 3.784 1.575 3.961 3.663.029.343.234.648.541.805.308.157.674.146.97-.032.483-.289.997-.436 1.528-.436 1.654 0 3 1.346 3 3s-1.346 3-3 3h-13c-1.103 0-2-.897-2-2s.897-2 2-2z"/><path d="m58 5c-.438 0-.876.061-1.303.18-.766-2.456-3.024-4.18-5.697-4.18-3.309 0-6 2.691-6 6-2.206 0-4 1.794-4 4s1.794 4 4 4h13c2.757 0 5-2.243 5-5s-2.243-5-5-5zm0 8h-13c-1.103 0-2-.897-2-2s.897-2 2-2c.271 0 .534.054.782.159.35.148.755.086 1.043-.162.289-.248.412-.638.317-1.007-.097-.378-.142-.693-.142-.99 0-2.206 1.794-4 4-4 2.081 0 3.784 1.575 3.961 3.663.029.343.234.648.541.805.308.157.674.146.97-.032.483-.289.997-.436 1.528-.436 1.654 0 3 1.346 3 3s-1.346 3-3 3z"/><path d="m50.303 37.303-.01-.01-8.707 8.707h-11.586c-2.757 0-5 2.243-5 5s2.243 5 5 5v-2c-1.654 0-3-1.346-3-3s1.346-3 3-3h11.586l8.707 8.707.01-.01c2.81 3.67 7.161 6.084 12.084 6.272.202.021.406.031.613.031v-2c-2.206 0-4-1.794-4-4s1.794-4 4-4v-2c-2.206 0-4-1.794-4-4s1.794-4 4-4v-2c-2.206 0-4-1.794-4-4s1.794-4 4-4v-2c-.207 0-.411.01-.613.031-4.923.188-9.274 2.602-12.084 6.272zm-5.889 10.697h1.586v-2h-1.586l3.152-3.152c-.358 1.327-.566 2.714-.566 4.152s.208 2.825.566 4.152zm15.276-6c-1.62 1.076-2.69 2.914-2.69 5s1.071 3.924 2.69 5c-1.62 1.076-2.69 2.914-2.69 5 0 1.089.296 2.108.805 2.99-5.152-2.069-8.805-7.106-8.805-12.99s3.653-10.921 8.805-12.99c-.509.882-.805 1.901-.805 2.99 0 2.086 1.071 3.924 2.69 5z"/><path d="m24 22c0-2.757-2.243-5-5-5s-5 2.243-5 5h2c0-1.654 1.346-3 3-3s3 1.346 3 3-1.346 3-3 3h-18v2h18c2.757 0 5-2.243 5-5z"/><path d="m24 58c0-2.757-2.243-5-5-5s-5 2.243-5 5h2c0-1.654 1.346-3 3-3s3 1.346 3 3-1.346 3-3 3h-18v2h18c2.757 0 5-2.243 5-5z"/><path d="m40 24c0-3.86-3.14-7-7-7s-7 3.14-7 7h2c0-2.757 2.243-5 5-5s5 2.243 5 5-2.243 5-5 5h-32v2h32c3.86 0 7-3.14 7-7z"/><path d="m22 38c0 1.654-1.346 3-3 3s-3-1.346-3-3h-2c0 2.757 2.243 5 5 5s5-2.243 5-5-2.243-5-5-5h-18v2h18c1.654 0 3 1.346 3 3z"/></g></svg>